<svg xmlns="http://www.w3.org/2000/svg" width="130" height="40" viewBox="0 0 130 40">
  <g fill="none" fill-rule="evenodd">
    <path fill="#0959E4" d="M12,0 L12,34 L-4.54747351e-13,34 L-4.54747351e-13,0 L12,0 Z M23,18 C27.418278,18 31,21.581722 31,26 C31,30.418278 27.418278,34 23,34 C18.581722,34 15,30.418278 15,26 C15,21.581722 18.581722,18 23,18 Z"/>
    <path fill="#1F2022" d="M51.3351351,25.8823529 L60.3027027,25.8823529 L60.3027027,29.9810247 L46,29.9810247 L46,3.18785579 L51.3351351,3.18785579 L51.3351351,25.8823529 Z M62.8756757,2.92220114 C62.8756757,2.06198178 63.1783754,1.35990152 63.7837838,0.815939279 C64.3891922,0.27197704 65.1837789,0 66.1675676,0 C67.1513563,0 67.9459429,0.27197704 68.5513514,0.815939279 C69.1567598,1.35990152 69.4594595,2.06198178 69.4594595,2.92220114 C69.4594595,3.75711992 69.1567598,4.44655009 68.5513514,4.99051233 C67.9459429,5.53447457 67.1513563,5.80645161 66.1675676,5.80645161 C65.1837789,5.80645161 64.3891922,5.53447457 63.7837838,4.99051233 C63.1783754,4.44655009 62.8756757,3.75711992 62.8756757,2.92220114 Z M68.8162162,8.95635674 L68.8162162,29.9810247 L63.4810811,29.9810247 L63.4810811,8.95635674 L68.8162162,8.95635674 Z M77.972973,25.5028463 L88.2648649,25.5028463 L88.2648649,29.9810247 L72.1459459,29.9810247 L72.1459459,25.7305503 L81.7945946,13.3965844 L72.372973,13.3965844 L72.372973,8.95635674 L87.8864865,8.95635674 L87.8864865,13.1688805 L77.972973,25.5028463 Z M95.9081081,25.5028463 L106.2,25.5028463 L106.2,29.9810247 L90.0810811,29.9810247 L90.0810811,25.7305503 L99.7297297,13.3965844 L90.3081081,13.3965844 L90.3081081,8.95635674 L105.821622,8.95635674 L105.821622,13.1688805 L95.9081081,25.5028463 Z M113.124324,8.95635674 L118.837838,23.2258065 L124.135135,8.95635674 L130,8.95635674 L117.172973,40 L111.27027,40 L116,29.373814 L107.183784,8.95635674 L113.124324,8.95635674 Z"/>
  </g>
</svg>
